<?xml version="1.0" encoding="UTF-8" standalone="no"?>
<svg
   xmlns:dc="http://purl.org/dc/elements/1.1/"
   xmlns:cc="http://creativecommons.org/ns#"
   xmlns:rdf="http://www.w3.org/1999/02/22-rdf-syntax-ns#"
   xmlns:svg="http://www.w3.org/2000/svg"
   xmlns="http://www.w3.org/2000/svg"
   xmlns:sodipodi="http://sodipodi.sourceforge.net/DTD/sodipodi-0.dtd"
   xmlns:inkscape="http://www.inkscape.org/namespaces/inkscape"
   inkscape:version="1.0 (4035a4f, 2020-05-01)"
   sodipodi:docname="86.svg"
   id="svg4440"
   height="200.0pt"
   width="200.0pt"
   viewBox="0 0 200 200"
   version="1.1">
  <metadata
     id="metadata4446">
    <rdf:RDF>
      <cc:Work
         rdf:about="">
        <dc:format>image/svg+xml</dc:format>
        <dc:type
           rdf:resource="http://purl.org/dc/dcmitype/StillImage" />
      </cc:Work>
    </rdf:RDF>
  </metadata>
  <defs
     id="defs4444" />
  <sodipodi:namedview
     inkscape:current-layer="svg4440"
     inkscape:cy="133.33333"
     inkscape:cx="133.33333"
     inkscape:zoom="1.75125"
     showgrid="false"
     id="namedview4442"
     inkscape:window-height="480"
     inkscape:window-width="640"
     inkscape:pageshadow="2"
     inkscape:pageopacity="0"
     guidetolerance="10"
     gridtolerance="10"
     objecttolerance="10"
     borderopacity="1"
     bordercolor="#666666"
     pagecolor="#ffffff" />
  <path
     style="fill:#ffffff;fill-opacity:0.02024291"
     id="path4282"
     fill="#ffffff"
     d="M 0.00 0.00 L 99.54 0.00 C 98.57 1.15 97.53 2.26 96.42 3.32 C 96.38 3.79 96.33 4.26 96.28 4.73 C 97.04 5.40 97.77 6.10 98.48 6.83 C 95.23 10.21 91.23 9.05 86.87 10.90 C 83.93 11.81 81.74 13.71 79.25 15.43 L 78.40 16.06 C 77.91 16.81 77.41 17.55 76.90 18.29 C 74.34 19.00 71.95 17.85 69.44 19.41 C 67.28 20.08 65.75 20.71 64.18 22.38 C 61.63 23.69 60.83 24.23 59.47 26.79 C 57.39 28.27 56.91 29.37 56.06 31.76 L 55.47 33.25 L 55.32 33.65 C 54.26 36.85 53.33 40.23 52.54 43.50 C 52.07 46.55 51.69 49.47 53.72 52.04 L 54.93 52.28 C 57.98 52.89 60.84 52.71 63.57 54.49 L 64.19 54.78 L 64.63 54.97 L 64.41 55.05 C 64.92 55.95 65.43 56.85 65.95 57.75 C 66.00 58.83 66.42 59.70 67.19 60.37 C 67.43 61.10 67.66 61.84 67.89 62.58 C 70.76 61.63 73.48 60.50 76.17 59.10 L 76.81 58.86 C 85.12 56.71 93.37 55.04 102.01 55.30 C 110.19 55.68 118.20 57.03 125.85 60.05 C 127.83 60.80 129.80 61.74 131.85 62.27 C 132.53 61.60 133.11 60.82 133.66 60.05 L 134.01 59.23 C 134.78 56.94 136.08 55.11 137.56 53.24 C 140.27 52.99 143.09 52.91 145.74 52.27 C 146.92 51.98 147.41 51.01 147.67 49.90 C 148.21 46.39 147.59 43.19 147.04 39.75 C 146.64 39.07 146.25 38.39 145.85 37.71 C 145.94 35.07 145.50 33.81 144.14 31.64 C 143.39 29.19 142.70 28.30 140.64 26.82 C 139.38 23.94 138.09 23.46 135.36 22.09 L 135.07 21.92 L 134.72 21.38 L 134.20 20.58 C 133.13 20.24 132.06 19.90 130.98 19.58 C 128.55 17.99 126.34 18.65 123.65 18.58 C 122.01 16.03 121.60 14.85 118.52 13.96 C 116.85 12.39 115.53 11.54 113.34 10.84 C 111.49 10.20 109.75 9.66 107.77 9.71 C 105.22 9.00 103.25 8.05 101.12 6.45 C 102.82 5.14 104.18 5.62 103.94 3.23 C 102.83 2.15 101.71 1.07 100.59 0.00 L 200.00 0.00 L 200.00 200.00 L 105.30 200.00 C 116.70 198.77 127.70 195.60 137.47 189.48 C 155.01 178.81 167.37 160.48 170.58 140.19 C 172.13 129.46 171.64 118.16 168.42 107.77 C 163.86 92.83 154.28 79.47 141.51 70.46 C 127.09 60.11 108.58 55.46 90.98 57.87 C 75.55 59.75 60.92 66.95 49.92 77.92 C 40.95 86.75 34.39 98.03 31.15 110.19 C 26.88 126.15 28.34 143.66 35.32 158.65 C 42.73 174.71 56.19 187.68 72.52 194.48 C 79.58 197.57 87.01 198.96 94.61 200.00 L 0.00 200.00 L 0.00 0.00 Z" />
  <path
     id="path4284"
     fill="#1e4382"
     d="M 99.54 0.00 L 100.59 0.00 C 101.71 1.07 102.83 2.15 103.94 3.23 C 104.18 5.62 102.82 5.14 101.12 6.45 C 103.25 8.05 105.22 9.00 107.77 9.71 C 109.75 9.66 111.49 10.20 113.34 10.84 C 115.53 11.54 116.85 12.39 118.52 13.96 C 121.60 14.85 122.01 16.03 123.65 18.58 C 126.34 18.65 128.55 17.99 130.98 19.58 C 132.06 19.90 133.13 20.24 134.20 20.58 L 134.72 21.38 C 131.76 20.57 129.41 19.38 126.35 19.57 L 126.68 19.69 L 126.13 19.84 L 124.73 19.73 L 122.51 19.61 C 122.12 18.34 121.71 17.07 121.32 15.81 C 119.62 15.21 117.84 14.68 116.24 13.87 L 115.23 12.93 C 114.54 12.40 113.84 11.90 113.13 11.41 C 111.89 12.92 110.72 14.36 109.00 15.34 C 110.11 14.06 111.21 12.79 112.33 11.53 C 111.00 11.48 109.67 11.42 108.34 11.39 L 106.23 9.70 C 106.31 10.95 106.39 12.20 106.48 13.45 C 105.44 13.47 104.40 13.50 103.36 13.52 C 103.54 12.06 103.72 10.60 103.90 9.14 C 103.00 8.64 102.10 8.13 101.21 7.63 C 101.12 6.88 101.04 6.13 100.95 5.39 C 101.87 5.02 102.79 4.65 103.71 4.28 C 102.49 3.15 101.28 2.02 100.07 0.88 C 98.91 2.03 97.73 3.17 96.55 4.31 C 97.51 4.71 98.48 5.10 99.44 5.50 C 99.37 6.12 99.30 6.73 99.23 7.35 C 98.27 8.03 97.31 8.73 96.37 9.45 L 96.61 11.11 C 95.95 10.63 95.18 10.42 94.31 10.49 C 92.78 10.48 91.25 10.45 89.72 10.45 C 88.16 11.36 86.53 12.02 84.84 12.62 L 84.65 12.90 L 83.97 13.93 L 83.75 14.53 C 82.25 14.84 80.74 15.09 79.25 15.43 C 81.74 13.71 83.93 11.81 86.87 10.90 C 91.23 9.05 95.23 10.21 98.48 6.83 C 97.77 6.10 97.04 5.40 96.28 4.73 C 96.33 4.26 96.38 3.79 96.42 3.32 C 97.53 2.26 98.57 1.15 99.54 0.00 Z" />
  <path
     id="path4286"
     fill="#fcaf17"
     d="M 100.07 0.88 C 101.28 2.02 102.49 3.15 103.71 4.28 C 102.79 4.65 101.87 5.02 100.95 5.39 C 101.04 6.13 101.12 6.88 101.21 7.63 C 102.10 8.13 103.00 8.64 103.90 9.14 C 103.72 10.60 103.54 12.06 103.36 13.52 C 104.40 13.50 105.44 13.47 106.48 13.45 C 106.39 12.20 106.31 10.95 106.23 9.70 L 108.34 11.39 C 108.56 12.71 108.78 14.02 109.00 15.34 C 110.72 14.36 111.89 12.92 113.13 11.41 C 113.84 11.90 114.54 12.40 115.23 12.93 C 114.41 13.33 113.60 13.75 112.80 14.19 C 113.50 15.20 114.26 16.19 115.06 17.14 C 115.47 16.05 115.86 14.96 116.24 13.87 C 117.84 14.68 119.62 15.21 121.32 15.81 C 121.71 17.07 122.12 18.34 122.51 19.61 C 121.94 20.55 120.31 22.46 122.05 23.14 C 123.76 25.39 124.15 20.62 124.73 19.73 L 126.13 19.84 L 126.42 22.04 L 126.48 22.44 L 126.67 22.47 C 128.07 22.84 129.15 22.30 129.92 20.87 C 128.85 20.45 127.77 20.06 126.68 19.69 L 126.35 19.57 C 129.41 19.38 131.76 20.57 134.72 21.38 L 135.07 21.92 C 135.29 22.71 135.50 23.50 135.71 24.29 C 136.78 24.29 137.84 24.28 138.91 24.28 C 139.17 25.40 139.42 26.52 139.67 27.64 C 140.37 27.91 141.08 28.19 141.78 28.46 C 140.66 29.00 139.56 29.56 138.47 30.16 C 139.08 31.66 139.91 32.44 140.99 32.47 C 141.51 31.44 141.99 30.39 142.42 29.31 C 142.63 30.16 142.84 31.00 143.05 31.84 C 145.37 34.56 145.43 37.65 146.42 40.95 C 147.02 43.22 147.26 45.17 146.80 47.51 C 145.06 46.30 144.40 44.24 142.03 45.36 C 139.33 46.21 140.76 49.42 141.87 51.02 C 143.73 50.60 145.53 50.01 147.36 49.49 C 145.78 52.92 140.40 52.25 137.20 52.77 C 136.68 53.55 136.16 54.34 135.64 55.13 C 118.62 47.26 99.43 44.95 81.15 49.39 C 75.39 50.62 70.15 53.04 64.63 54.97 L 64.19 54.78 C 63.92 54.11 63.66 53.43 63.39 52.76 C 60.57 52.49 57.76 52.29 54.93 52.28 L 53.72 52.04 C 52.57 48.40 52.51 45.94 53.49 42.24 C 54.97 42.26 56.46 42.31 57.94 42.29 C 57.91 41.39 57.87 40.50 57.80 39.60 L 55.53 39.42 C 55.02 37.63 55.74 37.81 56.99 36.82 C 58.16 36.55 59.02 35.98 59.57 35.12 L 57.86 33.39 C 56.78 34.38 55.85 35.53 55.06 36.84 C 55.14 35.78 55.23 34.71 55.32 33.65 L 55.47 33.25 L 57.09 32.16 C 57.32 30.97 57.49 29.77 57.68 28.57 C 58.55 28.46 59.43 28.35 60.31 28.24 C 60.69 26.95 61.07 25.67 61.46 24.38 C 62.85 24.03 64.24 23.68 65.64 23.33 C 66.30 23.41 68.82 25.90 68.61 24.10 C 68.98 22.71 68.29 22.13 66.53 22.37 L 66.56 21.11 C 67.83 20.70 69.11 20.28 70.38 19.86 C 70.92 21.08 71.49 22.27 72.10 23.45 C 73.06 22.71 73.99 21.92 74.88 21.10 C 73.73 20.57 72.56 20.05 71.39 19.54 C 73.47 19.18 74.40 19.03 75.97 20.57 L 76.40 22.55 C 77.56 24.38 79.26 22.79 78.79 21.11 C 78.57 19.44 78.47 17.75 78.40 16.06 L 79.25 15.43 C 80.74 15.09 82.25 14.84 83.75 14.53 C 84.54 16.25 87.62 16.66 86.94 14.14 C 86.40 13.49 85.64 13.08 84.65 12.90 L 84.84 12.62 C 86.53 12.02 88.16 11.36 89.72 10.45 C 91.25 10.45 92.78 10.48 94.31 10.49 C 93.89 12.37 94.38 13.34 95.76 13.42 C 96.60 12.99 96.88 12.22 96.61 11.11 L 96.37 9.45 C 97.31 8.73 98.27 8.03 99.23 7.35 C 99.30 6.73 99.37 6.12 99.44 5.50 C 98.48 5.10 97.51 4.71 96.55 4.31 C 97.73 3.17 98.91 2.03 100.07 0.88 Z" />
  <path
     id="path4288"
     fill="#ffffff"
     d="M 94.31 10.49 C 95.18 10.42 95.95 10.63 96.61 11.11 C 96.88 12.22 96.60 12.99 95.76 13.42 C 94.38 13.34 93.89 12.37 94.31 10.49 Z" />
  <path
     id="path4290"
     fill="#ffffff"
     d="M 104.89 10.54 C 106.43 11.37 106.44 12.22 104.92 13.07 C 103.38 12.26 103.37 11.42 104.89 10.54 Z" />
  <path
     id="path4292"
     fill="#ffffff"
     d="M 112.33 11.53 C 111.21 12.79 110.11 14.06 109.00 15.34 C 108.78 14.02 108.56 12.71 108.34 11.39 C 109.67 11.42 111.00 11.48 112.33 11.53 Z" />
  <path
     id="path4294"
     fill="#ffffff"
     d="M 89.32 12.01 C 90.60 10.55 92.45 12.08 91.57 13.70 C 90.26 15.15 88.47 13.64 89.32 12.01 Z" />
  <path
     id="path4296"
     fill="#ffffff"
     d="M 84.65 12.90 C 85.64 13.08 86.40 13.49 86.94 14.14 C 87.62 16.66 84.54 16.25 83.75 14.53 L 83.97 13.93 L 84.65 12.90 Z" />
  <path
     id="path4298"
     fill="#ffffff"
     d="M 115.23 12.93 L 116.24 13.87 C 115.86 14.96 115.47 16.05 115.06 17.14 C 114.26 16.19 113.50 15.20 112.80 14.19 C 113.60 13.75 114.41 13.33 115.23 12.93 Z" />
  <path
     id="path4300"
     fill="#e23143"
     d="M 100.00 15.39 C 105.73 15.58 111.49 16.00 115.93 20.03 C 120.04 23.47 121.71 28.15 122.60 33.28 C 120.48 34.85 117.09 35.83 117.26 39.02 C 118.25 40.29 119.35 41.42 120.45 42.60 C 119.31 43.10 118.18 43.63 116.99 44.02 C 115.92 43.57 114.93 43.00 113.92 42.43 C 113.50 40.40 114.71 37.17 112.05 36.48 C 108.50 35.68 109.34 42.51 105.85 42.62 C 104.34 42.80 103.04 40.94 101.96 40.07 C 103.23 39.32 104.57 38.60 105.76 37.71 C 107.24 34.15 102.30 31.61 100.36 29.28 L 101.53 28.38 C 101.61 27.67 101.66 26.95 101.71 26.24 C 101.74 25.24 101.74 24.24 101.73 23.24 L 101.62 21.17 C 101.51 19.81 101.40 18.44 101.29 17.08 L 101.42 16.15 C 100.23 15.14 98.43 15.77 98.83 17.47 C 98.40 20.40 98.23 23.37 98.38 26.33 C 98.70 27.54 99.06 28.74 99.47 29.94 C 97.68 31.45 94.55 33.55 94.19 36.01 C 93.96 38.46 96.72 38.86 98.28 39.98 C 97.11 41.03 95.96 42.97 94.16 42.58 C 91.26 42.17 91.76 37.20 89.04 36.35 C 85.01 36.51 87.63 42.18 84.67 43.70 C 82.99 44.55 81.32 43.10 79.77 42.49 C 81.04 40.91 83.86 39.63 82.72 37.22 C 81.58 35.42 79.22 34.30 77.54 33.03 C 78.44 29.30 79.30 25.82 82.04 22.96 C 81.28 24.47 80.55 25.99 79.81 27.50 C 85.96 25.32 91.09 24.58 97.63 25.08 C 97.55 22.15 97.59 19.22 97.47 16.29 C 90.99 16.60 87.63 18.01 82.73 22.11 C 86.91 16.07 93.29 15.80 100.00 15.39 Z" />
  <path
     id="path4302"
     fill="#1e4382"
     d="M 78.40 16.06 C 78.47 17.75 78.57 19.44 78.79 21.11 C 77.95 20.11 77.11 19.86 75.97 20.57 C 74.40 19.03 73.47 19.18 71.39 19.54 L 70.82 19.71 L 70.38 19.86 C 69.11 20.28 67.83 20.70 66.56 21.11 L 66.53 22.37 C 66.38 23.39 67.07 23.96 68.61 24.10 C 68.82 25.90 66.30 23.41 65.64 23.33 C 64.24 23.68 62.85 24.03 61.46 24.38 C 61.07 25.67 60.69 26.95 60.31 28.24 C 59.43 28.35 58.55 28.46 57.68 28.57 C 57.49 29.77 57.32 30.97 57.09 32.16 L 55.47 33.25 L 56.06 31.76 C 56.91 29.37 57.39 28.27 59.47 26.79 C 60.83 24.23 61.63 23.69 64.18 22.38 C 65.75 20.71 67.28 20.08 69.44 19.41 C 71.95 17.85 74.34 19.00 76.90 18.29 C 77.41 17.55 77.91 16.81 78.40 16.06 Z" />
  <path
     id="path4304"
     fill="#ffffff"
     d="M 101.42 16.15 L 101.29 17.08 L 98.83 17.47 C 98.43 15.77 100.23 15.14 101.42 16.15 Z" />
  <path
     id="path4306"
     fill="#ffffff"
     d="M 118.37 16.32 C 119.14 16.25 119.91 16.24 120.70 16.28 C 120.78 18.40 121.20 18.65 119.00 19.62 C 117.28 18.57 117.07 17.47 118.37 16.32 Z" />
  <path
     id="path4308"
     fill="#ffffff"
     d="M 81.09 16.54 C 82.71 16.88 81.92 19.54 80.42 18.45 C 79.96 17.49 80.18 16.85 81.09 16.54 Z" />
  <path
     id="path4310"
     fill="#ffffff"
     d="M 97.47 16.29 C 97.59 19.22 97.55 22.15 97.63 25.08 C 91.09 24.58 85.96 25.32 79.81 27.50 C 80.55 25.99 81.28 24.47 82.04 22.96 L 82.73 22.11 C 87.63 18.01 90.99 16.60 97.47 16.29 Z" />
  <path
     id="path4312"
     fill="#ffffff"
     d="M 102.76 16.32 C 106.46 16.63 109.86 16.80 113.08 18.86 C 116.62 20.93 118.65 24.11 120.65 27.57 C 114.46 25.36 109.20 24.49 102.58 25.08 C 102.68 22.16 102.68 19.24 102.76 16.32 Z" />
  <path
     id="path4314"
     fill="#fcaf17"
     d="M 98.83 17.47 L 101.29 17.08 C 101.40 18.44 101.51 19.81 101.62 21.17 C 100.90 20.74 100.18 20.32 99.44 19.92 C 99.09 21.20 98.80 22.49 98.51 23.78 L 101.73 23.24 C 101.74 24.24 101.74 25.24 101.71 26.24 C 100.60 26.27 99.49 26.29 98.38 26.33 C 98.23 23.37 98.40 20.40 98.83 17.47 Z" />
  <path
     id="path4316"
     fill="#ffffff"
     d="M 70.82 19.71 L 71.39 19.54 C 72.56 20.05 73.73 20.57 74.88 21.10 C 73.99 21.92 73.06 22.71 72.10 23.45 C 71.49 22.27 70.92 21.08 70.38 19.86 L 70.82 19.71 Z" />
  <path
     id="path4318"
     fill="#ffffff"
     d="M 78.79 21.11 C 79.26 22.79 77.56 24.38 76.40 22.55 L 75.97 20.57 C 77.11 19.86 77.95 20.11 78.79 21.11 Z" />
  <path
     id="path4320"
     fill="#ffffff"
     d="M 99.44 19.92 C 100.18 20.32 100.90 20.74 101.62 21.17 L 101.73 23.24 L 98.51 23.78 C 98.80 22.49 99.09 21.20 99.44 19.92 Z" />
  <path
     id="path4322"
     fill="#ffffff"
     d="M 122.51 19.61 L 124.73 19.73 C 124.15 20.62 123.76 25.39 122.05 23.14 C 120.31 22.46 121.94 20.55 122.51 19.61 Z" />
  <path
     id="path4324"
     fill="#ffffff"
     d="M 126.13 19.84 L 126.68 19.69 C 127.77 20.06 128.85 20.45 129.92 20.87 C 129.15 22.30 128.07 22.84 126.67 22.47 L 126.42 22.04 L 126.13 19.84 Z" />
  <path
     id="path4326"
     fill="#ffffff"
     d="M 66.53 22.37 C 68.29 22.13 68.98 22.71 68.61 24.10 C 67.07 23.96 66.38 23.39 66.53 22.37 Z" />
  <path
     id="path4328"
     fill="#e23143"
     d="M 126.42 22.04 L 126.67 22.47 L 126.48 22.44 L 126.42 22.04 Z" />
  <path
     id="path4330"
     fill="#ffffff"
     d="M 132.03 21.50 C 134.43 21.86 133.49 23.39 134.01 25.22 C 132.58 24.70 131.29 24.36 130.29 23.13 L 132.03 21.50 Z" />
  <path
     id="path4332"
     fill="#1e4382"
     d="M 135.07 21.92 L 135.36 22.09 C 138.09 23.46 139.38 23.94 140.64 26.82 C 142.70 28.30 143.39 29.19 144.14 31.64 C 145.50 33.81 145.94 35.07 145.85 37.71 C 146.25 38.39 146.64 39.07 147.04 39.75 C 147.59 43.19 148.21 46.39 147.67 49.90 C 147.41 51.01 146.92 51.98 145.74 52.27 C 143.09 52.91 140.27 52.99 137.56 53.24 C 136.08 55.11 134.78 56.94 134.01 59.23 L 133.66 60.05 C 133.70 59.10 133.73 58.14 133.75 57.19 L 133.71 55.50 C 112.21 45.60 86.75 45.85 65.38 56.03 C 66.45 56.64 67.51 57.24 68.58 57.83 C 68.45 59.19 68.32 60.54 68.20 61.90 C 70.82 60.83 73.45 59.89 76.17 59.10 C 73.48 60.50 70.76 61.63 67.89 62.58 C 67.66 61.84 67.43 61.10 67.19 60.37 C 68.79 58.99 68.11 57.21 65.95 57.75 C 65.43 56.85 64.92 55.95 64.41 55.05 L 64.63 54.97 C 70.15 53.04 75.39 50.62 81.15 49.39 C 99.43 44.95 118.62 47.26 135.64 55.13 C 136.16 54.34 136.68 53.55 137.20 52.77 C 140.40 52.25 145.78 52.92 147.36 49.49 C 145.53 50.01 143.73 50.60 141.87 51.02 C 143.78 50.17 145.58 49.13 147.34 48.01 L 146.80 47.51 C 147.26 45.17 147.02 43.22 146.42 40.95 C 145.43 37.65 145.37 34.56 143.05 31.84 C 142.84 31.00 142.63 30.16 142.42 29.31 L 142.27 28.68 L 141.78 28.46 C 141.08 28.19 140.37 27.91 139.67 27.64 C 139.42 26.52 139.17 25.40 138.91 24.28 C 137.84 24.28 136.78 24.29 135.71 24.29 C 135.50 23.50 135.29 22.71 135.07 21.92 Z" />
  <path
     id="path4334"
     fill="#e23143"
     d="M 74.34 24.61 L 74.71 24.77 L 75.06 24.94 C 74.02 25.35 73.55 26.29 73.65 27.76 C 72.72 29.42 71.78 31.07 70.96 32.79 L 71.77 33.52 C 74.85 33.39 74.83 33.16 76.38 30.43 C 75.67 32.14 74.90 33.34 73.62 34.67 C 72.71 36.33 71.58 38.16 71.25 40.04 C 71.72 42.87 74.29 42.52 76.43 43.58 C 75.17 44.93 74.32 47.04 72.14 46.74 C 69.72 45.87 67.96 40.83 65.19 43.22 C 64.54 45.23 65.00 47.52 64.52 49.58 C 63.47 50.43 62.10 50.95 60.91 51.56 C 61.34 50.06 61.84 48.52 62.14 46.98 C 61.58 45.55 60.68 44.19 59.88 42.88 C 60.56 38.79 61.18 35.02 63.80 31.66 C 66.55 28.17 70.49 26.55 74.34 24.61 Z" />
  <path
     id="path4336"
     fill="#ffffff"
     d="M 62.34 25.43 L 64.08 24.45 C 64.66 25.12 65.79 28.50 63.87 27.84 C 62.44 28.39 60.52 25.90 62.34 25.43 Z" />
  <path
     id="path4338"
     fill="#ffffff"
     d="M 75.06 24.94 C 77.93 26.18 76.03 28.16 73.65 27.76 C 73.55 26.29 74.02 25.35 75.06 24.94 Z" />
  <path
     id="path4340"
     fill="#e23143"
     d="M 124.10 25.26 C 123.55 26.73 123.89 28.22 125.75 27.92 C 127.38 27.34 126.77 25.95 125.83 25.03 C 128.63 25.82 130.91 26.98 133.11 28.91 C 131.20 27.95 129.43 27.39 127.27 27.26 C 128.21 28.91 129.10 30.55 130.36 31.98 C 132.56 33.29 135.24 33.89 137.61 34.80 C 136.45 33.10 135.29 31.40 134.09 29.72 C 138.71 32.93 139.58 37.69 140.34 42.89 C 139.51 44.25 138.65 45.58 138.04 47.05 C 138.36 48.57 139.08 50.05 139.68 51.49 C 138.46 51.01 137.20 50.56 136.04 49.95 C 134.49 48.38 136.55 44.61 134.79 43.16 C 131.60 40.38 129.98 48.30 126.48 46.51 C 123.84 45.32 124.75 43.28 124.60 40.94 L 122.49 42.16 C 122.80 44.10 123.44 46.06 124.03 47.94 C 121.99 47.43 119.95 46.94 117.91 46.47 C 119.35 45.17 120.75 43.84 121.97 42.31 C 121.11 40.52 120.05 39.06 120.20 36.98 C 120.64 38.41 121.12 39.98 121.98 41.21 C 124.89 41.12 125.51 40.68 126.40 37.95 C 125.27 35.99 124.09 35.73 122.01 35.22 C 123.32 35.46 124.61 35.77 125.91 36.08 C 126.52 35.61 127.13 35.14 127.73 34.67 C 126.69 34.16 125.64 33.66 124.60 33.16 C 124.63 32.44 124.66 31.72 124.70 31.00 C 125.60 30.21 126.50 29.42 127.39 28.63 C 126.04 28.46 124.68 28.28 123.33 28.08 C 123.49 27.00 123.15 25.98 124.10 25.26 Z" />
  <path
     id="path4342"
     fill="#ffffff"
     d="M 124.10 25.26 L 125.83 25.03 C 126.77 25.95 127.38 27.34 125.75 27.92 C 123.89 28.22 123.55 26.73 124.10 25.26 Z" />
  <path
     id="path4344"
     fill="#ffffff"
     d="M 137.72 25.24 C 139.57 27.14 137.71 28.34 135.47 27.67 L 135.33 27.55 C 135.04 26.14 136.27 23.57 137.72 25.24 Z" />
  <path
     id="path4346"
     fill="#ffffff"
     d="M 98.38 26.33 C 99.49 26.29 100.60 26.27 101.71 26.24 C 101.66 26.95 101.61 27.67 101.53 28.38 L 100.36 29.28 L 99.47 29.94 C 99.06 28.74 98.70 27.54 98.38 26.33 Z" />
  <path
     id="path4348"
     fill="#ffffff"
     d="M 71.65 26.49 C 72.56 28.79 71.16 30.22 70.35 32.26 C 67.70 32.99 65.08 33.82 62.45 34.64 C 65.07 31.02 67.77 28.66 71.65 26.49 Z" />
  <path
     id="path4350"
     fill="#e23143"
     d="M 135.33 27.55 L 135.47 27.67 L 135.32 27.66 L 135.33 27.55 Z" />
  <path
     id="path4352"
     fill="#ffffff"
     d="M 127.27 27.26 C 129.43 27.39 131.20 27.95 133.11 28.91 L 134.09 29.72 C 135.29 31.40 136.45 33.10 137.61 34.80 C 135.24 33.89 132.56 33.29 130.36 31.98 C 129.10 30.55 128.21 28.91 127.27 27.26 Z" />
  <path
     id="path4354"
     fill="#ffffff"
     d="M 61.97 29.45 C 61.43 30.63 60.84 31.72 60.10 32.80 C 58.97 32.11 58.26 31.23 58.00 30.14 C 59.23 28.86 60.39 29.41 61.97 29.45 Z" />
  <path
     id="path4356"
     fill="#ffffff"
     d="M 141.78 28.46 L 142.27 28.68 L 142.42 29.31 C 141.99 30.39 141.51 31.44 140.99 32.47 C 139.91 32.44 139.08 31.66 138.47 30.16 C 139.56 29.56 140.66 29.00 141.78 28.46 Z" />
  <path
     id="path4358"
     fill="#ffffff"
     d="M 76.38 30.43 C 74.83 33.16 74.85 33.39 71.77 33.52 C 72.11 32.57 72.47 31.64 72.87 30.71 C 74.03 30.56 75.20 30.47 76.38 30.43 Z" />
  <path
     id="path4360"
     fill="#ffffff"
     d="M 125.36 31.11 C 126.66 29.64 128.45 31.20 127.64 32.82 C 126.38 34.28 124.53 32.70 125.36 31.11 Z" />
  <path
     id="path4362"
     fill="#ffffff"
     d="M 98.74 32.96 C 100.83 31.79 103.34 33.51 102.89 35.90 C 102.81 37.94 99.82 39.12 98.37 37.65 C 96.69 36.49 97.05 33.93 98.74 32.96 Z" />
  <path
     id="path4364"
     fill="#1e4382"
     d="M 55.32 33.65 C 55.23 34.71 55.14 35.78 55.06 36.84 L 56.99 36.82 C 55.74 37.81 55.02 37.63 55.53 39.42 L 53.89 39.35 C 54.89 42.27 55.20 41.95 57.94 42.29 C 56.46 42.31 54.97 42.26 53.49 42.24 C 52.51 45.94 52.57 48.40 53.72 52.04 C 51.69 49.47 52.07 46.55 52.54 43.50 C 53.33 40.23 54.26 36.85 55.32 33.65 Z" />
  <path
     id="path4366"
     fill="#ffffff"
     d="M 57.86 33.39 L 59.57 35.12 C 59.02 35.98 58.16 36.55 56.99 36.82 L 55.06 36.84 C 55.85 35.53 56.78 34.38 57.86 33.39 Z" />
  <path
     id="path4368"
     fill="#ffffff"
     d="M 143.72 34.21 C 145.54 35.78 143.27 37.22 141.46 36.76 L 141.32 36.62 C 140.76 34.91 142.12 32.50 143.72 34.21 Z" />
  <path
     id="path4370"
     fill="#ffffff"
     d="M 75.81 35.07 C 77.23 35.79 79.70 36.09 79.85 38.05 C 79.93 40.46 77.06 42.47 75.13 40.55 C 72.94 38.57 74.80 37.05 75.81 35.07 Z" />
  <path
     id="path4372"
     fill="#ffffff"
     d="M 122.01 35.22 C 124.09 35.73 125.27 35.99 126.40 37.95 C 125.51 40.68 124.89 41.12 121.98 41.21 C 121.12 39.98 120.64 38.41 120.20 36.98 L 122.01 35.22 Z" />
  <path
     id="path4374"
     fill="#e23143"
     d="M 141.32 36.62 L 141.46 36.76 L 141.32 36.76 L 141.32 36.62 Z" />
  <path
     id="path4376"
     fill="#fcaf17"
     d="M 128.63 36.69 C 128.53 38.28 129.47 40.96 127.90 42.04 L 124.85 43.19 C 125.41 41.46 125.97 39.73 126.62 38.02 C 127.28 37.57 127.95 37.12 128.63 36.69 Z" />
  <path
     id="path4378"
     fill="#ffffff"
     d="M 55.53 39.42 L 57.80 39.60 C 57.87 40.50 57.91 41.39 57.94 42.29 C 55.20 41.95 54.89 42.27 53.89 39.35 L 55.53 39.42 Z" />
  <path
     id="path4380"
     fill="#ffffff"
     d="M 143.15 39.21 C 144.66 38.69 146.92 41.00 144.94 41.89 C 143.56 44.05 140.91 40.44 143.15 39.21 Z" />
  <path
     id="path4382"
     fill="#e23143"
     d="M 100.10 39.90 C 101.25 41.36 102.34 42.87 103.44 44.37 C 101.23 44.45 99.02 44.52 96.80 44.59 C 97.89 43.02 98.97 41.44 100.10 39.90 Z" />
  <path
     id="path4384"
     fill="#e23143"
     d="M 89.06 41.42 C 90.55 42.46 91.99 43.58 93.42 44.69 C 90.87 45.03 88.32 45.34 85.77 45.61 C 86.84 44.20 87.93 42.79 89.06 41.42 Z" />
  <path
     id="path4386"
     fill="#e23143"
     d="M 111.10 41.28 C 112.18 42.71 113.27 44.15 114.35 45.60 C 111.85 45.33 109.34 45.04 106.84 44.75 C 108.26 43.59 109.68 42.43 111.10 41.28 Z" />
  <path
     id="path4388"
     fill="#e23143"
     d="M 78.09 42.82 C 79.55 43.91 80.98 45.06 82.41 46.19 C 80.24 46.83 78.07 47.45 75.89 48.06 C 76.61 46.31 77.32 44.55 78.09 42.82 Z" />
  <path
     id="path4390"
     fill="#ffffff"
     d="M 56.98 44.46 C 58.56 45.65 60.34 46.42 59.62 48.80 C 58.86 51.19 55.02 51.34 54.30 48.85 C 53.46 46.52 55.40 45.58 56.98 44.46 Z" />
  <path
     id="path4392"
     fill="#ffffff"
     d="M 142.03 45.36 C 144.40 44.24 145.06 46.30 146.80 47.51 L 147.34 48.01 C 145.58 49.13 143.78 50.17 141.87 51.02 C 140.76 49.42 139.33 46.21 142.03 45.36 Z" />
  <path
     id="path4394"
     fill="#e23143"
     d="M 68.35 47.52 C 69.80 47.64 71.25 48.10 72.66 48.43 C 70.32 50.02 67.83 51.04 65.11 51.78 C 66.07 50.43 66.92 48.41 68.35 47.52 Z" />
  <path
     id="path4396"
     fill="#e23143"
     d="M 132.37 47.57 C 133.38 48.88 134.20 50.40 135.01 51.84 C 132.32 50.99 129.86 49.91 127.45 48.44 C 129.03 48.09 130.74 47.59 132.37 47.57 Z" />
  <path
     id="path4398"
     fill="#fcaf17"
     d="M 133.71 55.50 L 133.75 57.19 C 132.91 57.18 132.07 57.16 131.24 57.13 L 129.64 56.07 L 128.68 55.45 C 128.00 55.37 127.32 55.30 126.64 55.23 C 126.71 56.66 126.79 58.09 126.87 59.52 C 118.20 56.30 109.55 54.95 100.36 54.37 C 102.20 53.29 104.06 52.25 105.93 51.21 C 104.01 50.53 102.03 49.75 100.02 49.42 C 98.11 49.76 96.20 50.42 94.36 51.01 C 96.38 52.16 98.40 53.29 100.41 54.46 C 92.22 55.11 84.41 55.28 76.81 58.86 L 76.17 59.10 C 73.45 59.89 70.82 60.83 68.20 61.90 C 68.32 60.54 68.45 59.19 68.58 57.83 C 67.51 57.24 66.45 56.64 65.38 56.03 C 86.75 45.85 112.21 45.60 133.71 55.50 Z" />
  <path
     id="path4400"
     fill="#e23143"
     d="M 100.02 49.42 C 102.03 49.75 104.01 50.53 105.93 51.21 C 104.06 52.25 102.20 53.29 100.36 54.37 C 109.55 54.95 118.20 56.30 126.87 59.52 C 126.79 58.09 126.71 56.66 126.64 55.23 C 127.32 55.30 128.00 55.37 128.68 55.45 L 129.64 56.07 C 128.71 55.47 127.93 55.52 127.31 56.21 C 126.54 58.14 128.86 58.77 130.17 57.79 C 129.19 58.39 128.25 59.07 127.35 59.79 C 128.53 60.19 130.29 61.18 131.51 60.69 C 131.67 59.72 130.60 58.63 130.17 57.79 L 129.64 56.07 L 131.24 57.13 C 132.07 57.16 132.91 57.18 133.75 57.19 C 133.73 58.14 133.70 59.10 133.66 60.05 C 133.11 60.82 132.53 61.60 131.85 62.27 C 129.80 61.74 127.83 60.80 125.85 60.05 C 118.20 57.03 110.19 55.68 102.01 55.30 C 93.37 55.04 85.12 56.71 76.81 58.86 C 84.41 55.28 92.22 55.11 100.41 54.46 C 98.40 53.29 96.38 52.16 94.36 51.01 C 96.20 50.42 98.11 49.76 100.02 49.42 Z" />
  <path
     id="path4402"
     fill="#ffffff"
     d="M 89.35 51.03 C 90.65 49.59 92.46 51.17 91.58 52.76 C 90.27 54.21 88.48 52.62 89.35 51.03 Z" />
  <path
     id="path4404"
     fill="#ffffff"
     d="M 108.90 50.97 C 110.67 49.75 111.86 52.59 109.75 52.97 C 108.59 52.66 108.31 51.99 108.90 50.97 Z" />
  <path
     id="path4406"
     fill="#1e4382"
     d="M 54.93 52.28 C 57.76 52.29 60.57 52.49 63.39 52.76 C 63.66 53.43 63.92 54.11 64.19 54.78 L 63.57 54.49 C 60.84 52.71 57.98 52.89 54.93 52.28 Z" />
  <path
     id="path4408"
     fill="#1e4382"
     d="M 80.16 52.00 C 82.22 51.61 84.50 52.10 86.58 52.22 C 84.98 53.48 83.35 54.70 81.72 55.92 C 79.63 55.73 77.55 55.53 75.47 55.30 C 76.94 54.13 78.47 52.82 80.16 52.00 Z" />
  <path
     id="path4410"
     fill="#1e4382"
     d="M 113.59 52.27 C 115.64 52.08 117.80 51.70 119.86 51.94 C 121.67 52.75 123.36 54.09 124.98 55.24 C 123.02 55.49 121.00 55.82 119.02 55.76 C 117.03 55.08 115.28 53.50 113.59 52.27 Z" />
  <path
     id="path4412"
     fill="#ffffff"
     d="M 70.61 56.16 C 71.81 54.75 73.39 56.19 72.65 57.69 C 71.49 59.08 69.85 57.62 70.61 56.16 Z" />
  <path
     id="path4414"
     fill="#ffffff"
     d="M 127.31 56.21 C 127.93 55.52 128.71 55.47 129.64 56.07 L 130.17 57.79 C 128.86 58.77 126.54 58.14 127.31 56.21 Z" />
  <path
     id="path4416"
     fill="#1e4382"
     d="M 141.51 70.46 C 154.28 79.47 163.86 92.83 168.42 107.77 C 171.64 118.16 172.13 129.46 170.58 140.19 C 167.37 160.48 155.01 178.81 137.47 189.48 C 127.70 195.60 116.70 198.77 105.30 200.00 L 94.61 200.00 C 87.01 198.96 79.58 197.57 72.52 194.48 C 56.19 187.68 42.73 174.71 35.32 158.65 C 28.34 143.66 26.88 126.15 31.15 110.19 C 34.39 98.03 40.95 86.75 49.92 77.92 C 60.92 66.95 75.55 59.75 90.98 57.87 C 108.58 55.46 127.09 60.11 141.51 70.46 Z" />
  <path
     id="path4418"
     fill="#e23143"
     d="M 65.95 57.75 C 68.11 57.21 68.79 58.99 67.19 60.37 C 66.42 59.70 66.00 58.83 65.95 57.75 Z" />
  <path
     id="path4420"
     fill="#fcaf17"
     d="M 130.17 57.79 C 130.60 58.63 131.67 59.72 131.51 60.69 C 130.29 61.18 128.53 60.19 127.35 59.79 C 128.25 59.07 129.19 58.39 130.17 57.79 Z" />
  <path
     id="path4422"
     fill="#fcaf17"
     d="M 90.51 59.83 C 104.70 57.92 119.34 60.28 132.03 66.96 C 146.41 74.37 157.96 86.91 164.20 101.83 C 169.62 114.75 171.00 129.30 168.08 143.00 C 164.78 158.99 155.50 173.66 142.56 183.59 C 122.34 199.46 93.71 202.58 70.54 191.45 C 55.24 184.28 42.80 171.36 36.20 155.80 C 30.74 143.03 29.28 128.61 32.04 114.99 C 34.92 100.34 42.74 86.79 53.89 76.87 C 64.06 67.71 76.96 61.73 90.51 59.83 Z" />
  <path
     id="path4424"
     fill="#1e4382"
     d="M 92.49 65.68 C 110.98 63.40 130.03 69.61 143.53 82.47 C 155.78 93.88 163.16 110.25 163.49 127.00 C 163.88 140.00 160.09 153.06 152.83 163.84 C 144.81 175.79 132.77 184.90 119.01 189.16 C 109.79 192.12 99.75 192.58 90.20 191.25 C 74.01 188.74 59.17 179.71 49.37 166.59 C 39.64 153.69 35.18 137.04 37.20 120.99 C 38.68 108.54 43.98 96.65 52.19 87.18 C 62.37 75.35 76.98 67.54 92.49 65.68 Z" />
  <path
     id="path4426"
     fill="#ffffff"
     d="M 92.50 67.77 C 109.04 65.68 126.02 70.55 138.90 81.13 C 150.21 90.36 158.08 103.59 160.54 118.01 C 162.86 131.09 160.79 144.88 154.67 156.68 C 148.29 169.07 137.58 179.18 124.80 184.77 C 112.13 190.43 97.41 191.44 84.03 187.81 C 68.95 183.76 55.72 173.71 47.65 160.35 C 40.51 148.67 37.53 134.55 39.28 120.97 C 40.62 110.03 45.02 99.53 51.83 90.86 C 61.67 78.19 76.57 69.71 92.50 67.77 Z" />
  <path
     id="path4428"
     fill="#1e4382"
     d="M 71.87 76.58 C 76.39 81.36 81.03 86.03 85.52 90.84 C 95.35 87.72 104.30 87.56 114.11 90.89 C 118.82 86.14 123.42 81.27 128.04 76.43 C 140.90 83.60 150.96 95.22 155.73 109.19 C 160.77 123.68 159.84 140.28 153.07 154.06 C 146.97 166.80 136.43 176.59 123.69 182.52 C 118.37 177.21 113.16 171.78 107.90 166.41 C 105.48 166.71 103.05 167.00 100.62 167.28 C 100.63 170.15 100.63 173.03 100.64 175.90 C 96.98 175.90 93.31 175.90 89.65 175.89 C 89.65 172.60 89.65 169.30 89.64 166.01 C 77.79 162.61 67.97 154.25 63.16 142.85 C 59.69 135.05 59.50 126.73 60.88 118.42 C 58.76 116.31 56.67 114.17 54.57 112.04 C 53.07 116.93 51.90 121.87 51.70 127.00 C 51.13 138.83 55.96 150.42 64.10 158.91 C 61.43 161.58 58.79 164.29 56.11 166.95 C 51.89 161.89 48.13 156.54 45.59 150.42 C 39.85 137.08 39.76 121.38 44.89 107.83 C 49.77 94.49 59.53 83.51 71.87 76.58 Z" />
  <path
     id="path4430"
     fill="#fcaf17"
     d="M 71.53 79.30 C 76.12 83.86 80.50 88.63 85.03 93.24 C 95.53 89.58 104.27 89.58 114.77 93.25 C 119.29 88.51 123.89 83.84 128.35 79.04 C 145.33 88.86 156.55 107.32 156.85 127.00 C 157.30 140.55 152.59 153.78 144.14 164.33 C 142.24 162.44 140.33 160.55 138.39 158.70 C 142.30 153.40 145.94 148.19 147.83 141.80 C 153.76 122.39 145.99 100.09 129.78 88.05 C 126.89 90.96 124.02 93.90 121.14 96.82 C 125.18 99.86 128.35 103.12 131.36 107.18 C 129.53 108.81 127.69 110.45 125.86 112.09 C 123.00 108.01 120.10 105.01 116.04 102.12 C 110.69 107.76 105.41 113.46 100.02 119.06 C 94.39 113.53 89.23 107.33 83.29 102.17 C 70.96 110.04 65.58 126.77 71.80 140.18 C 75.61 148.58 83.08 153.95 91.74 156.60 C 91.69 147.01 91.72 137.43 91.72 127.85 C 98.01 127.84 104.30 127.85 110.59 127.84 C 110.58 129.60 110.56 131.36 110.55 133.13 C 106.57 133.13 102.58 133.12 98.60 133.07 C 98.59 135.85 98.59 138.62 98.59 141.39 C 102.57 141.38 106.56 141.38 110.54 141.44 C 110.51 143.40 110.49 145.37 110.47 147.34 C 106.51 147.34 102.55 147.34 98.59 147.34 C 98.59 150.85 98.58 154.37 98.60 157.89 C 108.13 157.90 116.26 153.44 122.91 146.92 C 124.69 148.72 126.47 150.51 128.25 152.31 C 120.48 160.79 110.07 165.13 98.60 165.29 C 98.59 168.14 98.59 170.99 98.58 173.84 C 96.28 173.83 93.98 173.83 91.68 173.83 C 91.71 170.73 91.74 167.63 91.81 164.54 C 85.91 162.74 80.34 160.44 75.63 156.36 C 64.48 147.05 59.32 131.50 63.52 117.47 C 66.07 109.00 71.60 102.19 78.60 96.94 C 75.70 93.98 72.83 91.01 69.96 88.03 C 65.59 91.68 61.54 95.62 58.35 100.37 C 52.23 109.25 49.24 120.27 49.65 131.01 C 50.16 141.42 54.52 151.01 61.20 158.91 C 59.54 160.57 57.88 162.23 56.23 163.89 C 52.92 159.62 49.89 155.21 47.75 150.23 C 41.77 136.74 41.78 120.93 47.31 107.30 C 52.02 95.62 60.62 85.59 71.53 79.30 Z" />
  <path
     id="path4432"
     fill="#ffffff"
     d="M 129.97 90.87 C 147.21 104.62 153.33 130.78 141.99 150.14 C 130.35 138.29 118.86 126.30 107.30 114.37 C 110.33 111.22 113.30 108.03 116.28 104.85 C 120.17 107.81 122.83 111.09 125.24 115.32 C 128.15 112.76 131.08 110.21 134.06 107.72 C 131.31 103.36 128.21 99.92 124.26 96.61 C 126.14 94.68 127.99 92.71 129.97 90.87 Z" />
  <path
     id="path4434"
     fill="#1e4382"
     d="M 109.28 98.95 C 106.25 102.28 103.16 105.55 100.05 108.82 C 96.79 105.43 93.49 102.08 90.20 98.72 C 97.10 96.95 102.42 97.09 109.28 98.95 Z" />
  <path
     id="path4436"
     fill="#ffffff"
     d="M 94.23 99.77 C 98.01 99.45 101.63 99.53 105.40 99.94 C 103.65 101.96 101.86 103.93 100.05 105.89 C 98.09 103.87 96.14 101.84 94.23 99.77 Z" />
  <path
     id="path4438"
     fill="#ffffff"
     d="M 71.08 129.04 C 76.83 134.59 82.33 140.39 87.98 146.03 C 90.49 148.14 89.45 150.85 89.71 153.80 C 85.57 151.89 81.69 149.85 78.54 146.47 C 73.90 141.68 71.72 135.58 71.08 129.04 Z" />
</svg>
